<mxfile host="app.diagrams.net" agent="Mozilla/5.0 (Windows NT 10.0; Win64; x64) AppleWebKit/537.36 (KHTML, like Gecko) Chrome/131.0.0.0 Safari/537.36 Edg/131.0.0.0" version="25.0.3">
  <diagram id="C5RBs43oDa-KdzZeNtuy" name="Page-1">
    <mxGraphModel dx="1042" dy="565" grid="1" gridSize="10" guides="1" tooltips="1" connect="1" arrows="1" fold="1" page="1" pageScale="1" pageWidth="827" pageHeight="1169" math="0" shadow="0">
      <root>
        <mxCell id="WIyWlLk6GJQsqaUBKTNV-0" />
        <mxCell id="WIyWlLk6GJQsqaUBKTNV-1" parent="WIyWlLk6GJQsqaUBKTNV-0" />
        <mxCell id="SbPb5Pih7AK-18SAyZj2-2" value="" style="edgeStyle=orthogonalEdgeStyle;rounded=0;orthogonalLoop=1;jettySize=auto;html=1;" edge="1" parent="WIyWlLk6GJQsqaUBKTNV-1" source="SbPb5Pih7AK-18SAyZj2-0" target="SbPb5Pih7AK-18SAyZj2-1">
          <mxGeometry relative="1" as="geometry" />
        </mxCell>
        <mxCell id="SbPb5Pih7AK-18SAyZj2-0" value="START" style="ellipse;whiteSpace=wrap;html=1;" vertex="1" parent="WIyWlLk6GJQsqaUBKTNV-1">
          <mxGeometry x="360" y="30" width="120" height="80" as="geometry" />
        </mxCell>
        <mxCell id="SbPb5Pih7AK-18SAyZj2-4" value="" style="edgeStyle=orthogonalEdgeStyle;rounded=0;orthogonalLoop=1;jettySize=auto;html=1;" edge="1" parent="WIyWlLk6GJQsqaUBKTNV-1" source="SbPb5Pih7AK-18SAyZj2-1" target="SbPb5Pih7AK-18SAyZj2-3">
          <mxGeometry relative="1" as="geometry" />
        </mxCell>
        <mxCell id="SbPb5Pih7AK-18SAyZj2-1" value="num1,num2" style="shape=parallelogram;perimeter=parallelogramPerimeter;whiteSpace=wrap;html=1;fixedSize=1;" vertex="1" parent="WIyWlLk6GJQsqaUBKTNV-1">
          <mxGeometry x="360" y="170" width="120" height="60" as="geometry" />
        </mxCell>
        <mxCell id="SbPb5Pih7AK-18SAyZj2-14" value="" style="edgeStyle=orthogonalEdgeStyle;rounded=0;orthogonalLoop=1;jettySize=auto;html=1;" edge="1" parent="WIyWlLk6GJQsqaUBKTNV-1" source="SbPb5Pih7AK-18SAyZj2-3" target="SbPb5Pih7AK-18SAyZj2-13">
          <mxGeometry relative="1" as="geometry" />
        </mxCell>
        <mxCell id="SbPb5Pih7AK-18SAyZj2-15" style="edgeStyle=orthogonalEdgeStyle;rounded=0;orthogonalLoop=1;jettySize=auto;html=1;" edge="1" parent="WIyWlLk6GJQsqaUBKTNV-1" source="SbPb5Pih7AK-18SAyZj2-3" target="SbPb5Pih7AK-18SAyZj2-16">
          <mxGeometry relative="1" as="geometry">
            <mxPoint x="450" y="420" as="targetPoint" />
          </mxGeometry>
        </mxCell>
        <mxCell id="SbPb5Pih7AK-18SAyZj2-3" value="a &amp;lt; b?" style="rhombus;whiteSpace=wrap;html=1;" vertex="1" parent="WIyWlLk6GJQsqaUBKTNV-1">
          <mxGeometry x="380" y="300" width="80" height="80" as="geometry" />
        </mxCell>
        <mxCell id="SbPb5Pih7AK-18SAyZj2-18" value="" style="edgeStyle=orthogonalEdgeStyle;rounded=0;orthogonalLoop=1;jettySize=auto;html=1;" edge="1" parent="WIyWlLk6GJQsqaUBKTNV-1" source="SbPb5Pih7AK-18SAyZj2-13" target="SbPb5Pih7AK-18SAyZj2-17">
          <mxGeometry relative="1" as="geometry" />
        </mxCell>
        <mxCell id="SbPb5Pih7AK-18SAyZj2-13" value="Nhỏ hơn = a" style="whiteSpace=wrap;html=1;" vertex="1" parent="WIyWlLk6GJQsqaUBKTNV-1">
          <mxGeometry x="260" y="420" width="120" height="60" as="geometry" />
        </mxCell>
        <mxCell id="SbPb5Pih7AK-18SAyZj2-20" value="" style="edgeStyle=orthogonalEdgeStyle;rounded=0;orthogonalLoop=1;jettySize=auto;html=1;" edge="1" parent="WIyWlLk6GJQsqaUBKTNV-1" source="SbPb5Pih7AK-18SAyZj2-16" target="SbPb5Pih7AK-18SAyZj2-19">
          <mxGeometry relative="1" as="geometry" />
        </mxCell>
        <mxCell id="SbPb5Pih7AK-18SAyZj2-16" value="Nhỏ hơn = b" style="rounded=0;whiteSpace=wrap;html=1;" vertex="1" parent="WIyWlLk6GJQsqaUBKTNV-1">
          <mxGeometry x="450" y="420" width="120" height="60" as="geometry" />
        </mxCell>
        <mxCell id="SbPb5Pih7AK-18SAyZj2-26" style="edgeStyle=orthogonalEdgeStyle;rounded=0;orthogonalLoop=1;jettySize=auto;html=1;entryX=0.5;entryY=0;entryDx=0;entryDy=0;" edge="1" parent="WIyWlLk6GJQsqaUBKTNV-1" source="SbPb5Pih7AK-18SAyZj2-17" target="SbPb5Pih7AK-18SAyZj2-25">
          <mxGeometry relative="1" as="geometry" />
        </mxCell>
        <mxCell id="SbPb5Pih7AK-18SAyZj2-17" value="Hiển thị a" style="shape=parallelogram;perimeter=parallelogramPerimeter;whiteSpace=wrap;html=1;fixedSize=1;" vertex="1" parent="WIyWlLk6GJQsqaUBKTNV-1">
          <mxGeometry x="260" y="560" width="120" height="60" as="geometry" />
        </mxCell>
        <mxCell id="SbPb5Pih7AK-18SAyZj2-27" style="edgeStyle=orthogonalEdgeStyle;rounded=0;orthogonalLoop=1;jettySize=auto;html=1;entryX=0.5;entryY=0;entryDx=0;entryDy=0;" edge="1" parent="WIyWlLk6GJQsqaUBKTNV-1" source="SbPb5Pih7AK-18SAyZj2-19" target="SbPb5Pih7AK-18SAyZj2-25">
          <mxGeometry relative="1" as="geometry" />
        </mxCell>
        <mxCell id="SbPb5Pih7AK-18SAyZj2-19" value="Hiển thị b" style="shape=parallelogram;perimeter=parallelogramPerimeter;whiteSpace=wrap;html=1;fixedSize=1;rounded=0;" vertex="1" parent="WIyWlLk6GJQsqaUBKTNV-1">
          <mxGeometry x="450" y="560" width="120" height="60" as="geometry" />
        </mxCell>
        <mxCell id="SbPb5Pih7AK-18SAyZj2-25" value="End" style="ellipse;whiteSpace=wrap;html=1;" vertex="1" parent="WIyWlLk6GJQsqaUBKTNV-1">
          <mxGeometry x="350" y="660" width="120" height="80" as="geometry" />
        </mxCell>
      </root>
    </mxGraphModel>
  </diagram>
</mxfile>
